ISO-10303-21;
HEADER;
/* Generated by software containing ST-Developer
 * from STEP Tools, Inc. (www.steptools.com) 
 */

FILE_DESCRIPTION(
/* description */ (''),
/* implementation_level */ '2;1');

FILE_NAME(
/* name */ 'plusbutton.step',
/* time_stamp */ '2026-06-17T15:44:18+05:30',
/* author */ (''),
/* organization */ (''),
/* preprocessor_version */ 'ST-DEVELOPER v20.1',
/* originating_system */ 'Autodesk Translation Framework v15.8.0.0',
/* authorisation */ '');

FILE_SCHEMA (('AUTOMOTIVE_DESIGN { 1 0 10303 214 3 1 1 }'));
ENDSEC;

DATA;
#10=MECHANICAL_DESIGN_GEOMETRIC_PRESENTATION_REPRESENTATION('',(#13),#1255);
#11=SHAPE_REPRESENTATION_RELATIONSHIP('SRR','None',#1261,#12);
#12=ADVANCED_BREP_SHAPE_REPRESENTATION('',(#14),#1254);
#13=STYLED_ITEM('',(#1270),#14);
#14=MANIFOLD_SOLID_BREP('Body11',#751);
#15=CIRCLE('',#756,0.549999999999997);
#16=CIRCLE('',#757,0.549999999999997);
#17=CIRCLE('',#760,0.549999999999997);
#18=CIRCLE('',#761,0.549999999999997);
#19=CIRCLE('',#764,1.50000002235174);
#20=CIRCLE('',#765,1.50000002235174);
#21=CIRCLE('',#770,1.47732236721439);
#22=CIRCLE('',#771,1.47732236721439);
#23=CIRCLE('',#774,0.549999999999997);
#24=CIRCLE('',#775,0.549999999999997);
#25=CIRCLE('',#778,0.549999999999997);
#26=CIRCLE('',#779,0.549999999999997);
#27=CIRCLE('',#784,0.549999999999997);
#28=CIRCLE('',#785,0.549999999999997);
#29=CIRCLE('',#788,0.549999999999997);
#30=CIRCLE('',#789,0.549999999999997);
#31=CIRCLE('',#792,1.50001453270954);
#32=CIRCLE('',#793,1.50001453270954);
#33=CIRCLE('',#798,0.549999999999997);
#34=CIRCLE('',#799,0.549999999999997);
#35=CIRCLE('',#802,0.549999999999997);
#36=CIRCLE('',#803,0.549999999999997);
#37=CIRCLE('',#806,1.50000002235174);
#38=CIRCLE('',#807,1.50000002235174);
#39=CIRCLE('',#810,0.549999999999997);
#40=CIRCLE('',#811,0.549999999999997);
#41=CIRCLE('',#814,0.549999999999997);
#42=CIRCLE('',#815,0.549999999999997);
#43=CYLINDRICAL_SURFACE('',#755,0.549999999999997);
#44=CYLINDRICAL_SURFACE('',#759,0.549999999999997);
#45=CYLINDRICAL_SURFACE('',#763,1.50000002235174);
#46=CYLINDRICAL_SURFACE('',#769,1.47732236721439);
#47=CYLINDRICAL_SURFACE('',#773,0.549999999999997);
#48=CYLINDRICAL_SURFACE('',#777,0.549999999999997);
#49=CYLINDRICAL_SURFACE('',#783,0.549999999999997);
#50=CYLINDRICAL_SURFACE('',#787,0.549999999999997);
#51=CYLINDRICAL_SURFACE('',#791,1.50001453270954);
#52=CYLINDRICAL_SURFACE('',#797,0.549999999999997);
#53=CYLINDRICAL_SURFACE('',#801,0.549999999999997);
#54=CYLINDRICAL_SURFACE('',#805,1.50000002235174);
#55=CYLINDRICAL_SURFACE('',#809,0.549999999999997);
#56=CYLINDRICAL_SURFACE('',#813,0.549999999999997);
#57=FACE_OUTER_BOUND('',#95,.T.);
#58=FACE_OUTER_BOUND('',#96,.T.);
#59=FACE_OUTER_BOUND('',#97,.T.);
#60=FACE_OUTER_BOUND('',#98,.T.);
#61=FACE_OUTER_BOUND('',#99,.T.);
#62=FACE_OUTER_BOUND('',#100,.T.);
#63=FACE_OUTER_BOUND('',#101,.T.);
#64=FACE_OUTER_BOUND('',#102,.T.);
#65=FACE_OUTER_BOUND('',#103,.T.);
#66=FACE_OUTER_BOUND('',#104,.T.);
#67=FACE_OUTER_BOUND('',#105,.T.);
#68=FACE_OUTER_BOUND('',#106,.T.);
#69=FACE_OUTER_BOUND('',#107,.T.);
#70=FACE_OUTER_BOUND('',#108,.T.);
#71=FACE_OUTER_BOUND('',#109,.T.);
#72=FACE_OUTER_BOUND('',#110,.T.);
#73=FACE_OUTER_BOUND('',#111,.T.);
#74=FACE_OUTER_BOUND('',#112,.T.);
#75=FACE_OUTER_BOUND('',#113,.T.);
#76=FACE_OUTER_BOUND('',#114,.T.);
#77=FACE_OUTER_BOUND('',#115,.T.);
#78=FACE_OUTER_BOUND('',#116,.T.);
#79=FACE_OUTER_BOUND('',#117,.T.);
#80=FACE_OUTER_BOUND('',#118,.T.);
#81=FACE_OUTER_BOUND('',#119,.T.);
#82=FACE_OUTER_BOUND('',#120,.T.);
#83=FACE_OUTER_BOUND('',#121,.T.);
#84=FACE_OUTER_BOUND('',#122,.T.);
#85=FACE_OUTER_BOUND('',#123,.T.);
#86=FACE_OUTER_BOUND('',#124,.T.);
#87=FACE_OUTER_BOUND('',#125,.T.);
#88=FACE_OUTER_BOUND('',#126,.T.);
#89=FACE_OUTER_BOUND('',#127,.T.);
#90=FACE_OUTER_BOUND('',#128,.T.);
#91=FACE_OUTER_BOUND('',#129,.T.);
#92=FACE_OUTER_BOUND('',#130,.T.);
#93=FACE_OUTER_BOUND('',#131,.T.);
#94=FACE_OUTER_BOUND('',#132,.T.);
#95=EDGE_LOOP('',(#473,#474,#475,#476));
#96=EDGE_LOOP('',(#477,#478,#479,#480));
#97=EDGE_LOOP('',(#481,#482,#483,#484));
#98=EDGE_LOOP('',(#485,#486,#487,#488));
#99=EDGE_LOOP('',(#489,#490,#491,#492));
#100=EDGE_LOOP('',(#493,#494,#495,#496));
#101=EDGE_LOOP('',(#497,#498,#499,#500));
#102=EDGE_LOOP('',(#501,#502,#503,#504));
#103=EDGE_LOOP('',(#505,#506,#507,#508));
#104=EDGE_LOOP('',(#509,#510,#511,#512));
#105=EDGE_LOOP('',(#513,#514,#515,#516));
#106=EDGE_LOOP('',(#517,#518,#519,#520));
#107=EDGE_LOOP('',(#521,#522,#523,#524));
#108=EDGE_LOOP('',(#525,#526,#527,#528));
#109=EDGE_LOOP('',(#529,#530,#531,#532));
#110=EDGE_LOOP('',(#533,#534,#535,#536));
#111=EDGE_LOOP('',(#537,#538,#539,#540));
#112=EDGE_LOOP('',(#541,#542,#543,#544));
#113=EDGE_LOOP('',(#545,#546,#547,#548));
#114=EDGE_LOOP('',(#549,#550,#551,#552));
#115=EDGE_LOOP('',(#553,#554,#555,#556));
#116=EDGE_LOOP('',(#557,#558,#559,#560));
#117=EDGE_LOOP('',(#561,#562,#563,#564));
#118=EDGE_LOOP('',(#565,#566,#567,#568));
#119=EDGE_LOOP('',(#569,#570,#571,#572));
#120=EDGE_LOOP('',(#573,#574,#575,#576));
#121=EDGE_LOOP('',(#577,#578,#579,#580));
#122=EDGE_LOOP('',(#581,#582,#583,#584));
#123=EDGE_LOOP('',(#585,#586,#587,#588));
#124=EDGE_LOOP('',(#589,#590,#591,#592));
#125=EDGE_LOOP('',(#593,#594,#595,#596));
#126=EDGE_LOOP('',(#597,#598,#599,#600));
#127=EDGE_LOOP('',(#601,#602,#603,#604));
#128=EDGE_LOOP('',(#605,#606,#607,#608));
#129=EDGE_LOOP('',(#609,#610,#611,#612));
#130=EDGE_LOOP('',(#613,#614,#615,#616));
#131=EDGE_LOOP('',(#617,#618,#619,#620,#621,#622,#623,#624,#625,#626,#627,
#628,#629,#630,#631,#632,#633,#634,#635,#636,#637,#638,#639,#640,#641,#642,
#643,#644,#645,#646,#647,#648,#649,#650,#651,#652));
#132=EDGE_LOOP('',(#653,#654,#655,#656,#657,#658,#659,#660,#661,#662,#663,
#664,#665,#666,#667,#668,#669,#670,#671,#672,#673,#674,#675,#676,#677,#678,
#679,#680,#681,#682,#683,#684,#685,#686,#687,#688));
#133=LINE('',#1037,#213);
#134=LINE('',#1039,#214);
#135=LINE('',#1041,#215);
#136=LINE('',#1042,#216);
#137=LINE('',#1045,#217);
#138=LINE('',#1047,#218);
#139=LINE('',#1048,#219);
#140=LINE('',#1054,#220);
#141=LINE('',#1057,#221);
#142=LINE('',#1059,#222);
#143=LINE('',#1060,#223);
#144=LINE('',#1066,#224);
#145=LINE('',#1069,#225);
#146=LINE('',#1071,#226);
#147=LINE('',#1072,#227);
#148=LINE('',#1078,#228);
#149=LINE('',#1081,#229);
#150=LINE('',#1083,#230);
#151=LINE('',#1084,#231);
#152=LINE('',#1087,#232);
#153=LINE('',#1089,#233);
#154=LINE('',#1090,#234);
#155=LINE('',#1093,#235);
#156=LINE('',#1095,#236);
#157=LINE('',#1096,#237);
#158=LINE('',#1102,#238);
#159=LINE('',#1105,#239);
#160=LINE('',#1107,#240);
#161=LINE('',#1108,#241);
#162=LINE('',#1114,#242);
#163=LINE('',#1117,#243);
#164=LINE('',#1119,#244);
#165=LINE('',#1120,#245);
#166=LINE('',#1126,#246);
#167=LINE('',#1129,#247);
#168=LINE('',#1131,#248);
#169=LINE('',#1132,#249);
#170=LINE('',#1135,#250);
#171=LINE('',#1137,#251);
#172=LINE('',#1138,#252);
#173=LINE('',#1141,#253);
#174=LINE('',#1143,#254);
#175=LINE('',#1144,#255);
#176=LINE('',#1150,#256);
#177=LINE('',#1153,#257);
#178=LINE('',#1155,#258);
#179=LINE('',#1156,#259);
#180=LINE('',#1162,#260);
#181=LINE('',#1165,#261);
#182=LINE('',#1167,#262);
#183=LINE('',#1168,#263);
#184=LINE('',#1174,#264);
#185=LINE('',#1177,#265);
#186=LINE('',#1179,#266);
#187=LINE('',#1180,#267);
#188=LINE('',#1183,#268);
#189=LINE('',#1185,#269);
#190=LINE('',#1186,#270);
#191=LINE('',#1189,#271);
#192=LINE('',#1191,#272);
#193=LINE('',#1192,#273);
#194=LINE('',#1198,#274);
#195=LINE('',#1201,#275);
#196=LINE('',#1203,#276);
#197=LINE('',#1204,#277);
#198=LINE('',#1210,#278);
#199=LINE('',#1213,#279);
#200=LINE('',#1215,#280);
#201=LINE('',#1216,#281);
#202=LINE('',#1222,#282);
#203=LINE('',#1225,#283);
#204=LINE('',#1227,#284);
#205=LINE('',#1228,#285);
#206=LINE('',#1234,#286);
#207=LINE('',#1237,#287);
#208=LINE('',#1239,#288);
#209=LINE('',#1240,#289);
#210=LINE('',#1246,#290);
#211=LINE('',#1248,#291);
#212=LINE('',#1249,#292);
#213=VECTOR('',#823,10.);
#214=VECTOR('',#824,10.);
#215=VECTOR('',#825,10.);
#216=VECTOR('',#826,10.);
#217=VECTOR('',#829,10.);
#218=VECTOR('',#830,10.);
#219=VECTOR('',#831,10.);
#220=VECTOR('',#838,10.);
#221=VECTOR('',#841,10.);
#222=VECTOR('',#842,10.);
#223=VECTOR('',#843,10.);
#224=VECTOR('',#850,10.);
#225=VECTOR('',#853,10.);
#226=VECTOR('',#854,10.);
#227=VECTOR('',#855,10.);
#228=VECTOR('',#862,10.);
#229=VECTOR('',#865,10.);
#230=VECTOR('',#866,10.);
#231=VECTOR('',#867,10.);
#232=VECTOR('',#870,10.);
#233=VECTOR('',#871,10.);
#234=VECTOR('',#872,10.);
#235=VECTOR('',#875,10.);
#236=VECTOR('',#876,10.);
#237=VECTOR('',#877,10.);
#238=VECTOR('',#884,10.);
#239=VECTOR('',#887,10.);
#240=VECTOR('',#888,10.);
#241=VECTOR('',#889,10.);
#242=VECTOR('',#896,10.);
#243=VECTOR('',#899,10.);
#244=VECTOR('',#900,10.);
#245=VECTOR('',#901,10.);
#246=VECTOR('',#908,10.);
#247=VECTOR('',#911,10.);
#248=VECTOR('',#912,10.);
#249=VECTOR('',#913,10.);
#250=VECTOR('',#916,10.);
#251=VECTOR('',#917,10.);
#252=VECTOR('',#918,10.);
#253=VECTOR('',#921,10.);
#254=VECTOR('',#922,10.);
#255=VECTOR('',#923,10.);
#256=VECTOR('',#930,10.);
#257=VECTOR('',#933,10.);
#258=VECTOR('',#934,10.);
#259=VECTOR('',#935,10.);
#260=VECTOR('',#942,10.);
#261=VECTOR('',#945,10.);
#262=VECTOR('',#946,10.);
#263=VECTOR('',#947,10.);
#264=VECTOR('',#954,10.);
#265=VECTOR('',#957,10.);
#266=VECTOR('',#958,10.);
#267=VECTOR('',#959,10.);
#268=VECTOR('',#962,10.);
#269=VECTOR('',#963,10.);
#270=VECTOR('',#964,10.);
#271=VECTOR('',#967,10.);
#272=VECTOR('',#968,10.);
#273=VECTOR('',#969,10.);
#274=VECTOR('',#976,10.);
#275=VECTOR('',#979,10.);
#276=VECTOR('',#980,10.);
#277=VECTOR('',#981,10.);
#278=VECTOR('',#988,10.);
#279=VECTOR('',#991,10.);
#280=VECTOR('',#992,10.);
#281=VECTOR('',#993,10.);
#282=VECTOR('',#1000,10.);
#283=VECTOR('',#1003,10.);
#284=VECTOR('',#1004,10.);
#285=VECTOR('',#1005,10.);
#286=VECTOR('',#1012,10.);
#287=VECTOR('',#1015,10.);
#288=VECTOR('',#1016,10.);
#289=VECTOR('',#1017,10.);
#290=VECTOR('',#1024,10.);
#291=VECTOR('',#1027,10.);
#292=VECTOR('',#1028,10.);
#293=VERTEX_POINT('',#1035);
#294=VERTEX_POINT('',#1036);
#295=VERTEX_POINT('',#1038);
#296=VERTEX_POINT('',#1040);
#297=VERTEX_POINT('',#1044);
#298=VERTEX_POINT('',#1046);
#299=VERTEX_POINT('',#1050);
#300=VERTEX_POINT('',#1052);
#301=VERTEX_POINT('',#1056);
#302=VERTEX_POINT('',#1058);
#303=VERTEX_POINT('',#1062);
#304=VERTEX_POINT('',#1064);
#305=VERTEX_POINT('',#1068);
#306=VERTEX_POINT('',#1070);
#307=VERTEX_POINT('',#1074);
#308=VERTEX_POINT('',#1076);
#309=VERTEX_POINT('',#1080);
#310=VERTEX_POINT('',#1082);
#311=VERTEX_POINT('',#1086);
#312=VERTEX_POINT('',#1088);
#313=VERTEX_POINT('',#1092);
#314=VERTEX_POINT('',#1094);
#315=VERTEX_POINT('',#1098);
#316=VERTEX_POINT('',#1100);
#317=VERTEX_POINT('',#1104);
#318=VERTEX_POINT('',#1106);
#319=VERTEX_POINT('',#1110);
#320=VERTEX_POINT('',#1112);
#321=VERTEX_POINT('',#1116);
#322=VERTEX_POINT('',#1118);
#323=VERTEX_POINT('',#1122);
#324=VERTEX_POINT('',#1124);
#325=VERTEX_POINT('',#1128);
#326=VERTEX_POINT('',#1130);
#327=VERTEX_POINT('',#1134);
#328=VERTEX_POINT('',#1136);
#329=VERTEX_POINT('',#1140);
#330=VERTEX_POINT('',#1142);
#331=VERTEX_POINT('',#1146);
#332=VERTEX_POINT('',#1148);
#333=VERTEX_POINT('',#1152);
#334=VERTEX_POINT('',#1154);
#335=VERTEX_POINT('',#1158);
#336=VERTEX_POINT('',#1160);
#337=VERTEX_POINT('',#1164);
#338=VERTEX_POINT('',#1166);
#339=VERTEX_POINT('',#1170);
#340=VERTEX_POINT('',#1172);
#341=VERTEX_POINT('',#1176);
#342=VERTEX_POINT('',#1178);
#343=VERTEX_POINT('',#1182);
#344=VERTEX_POINT('',#1184);
#345=VERTEX_POINT('',#1188);
#346=VERTEX_POINT('',#1190);
#347=VERTEX_POINT('',#1194);
#348=VERTEX_POINT('',#1196);
#349=VERTEX_POINT('',#1200);
#350=VERTEX_POINT('',#1202);
#351=VERTEX_POINT('',#1206);
#352=VERTEX_POINT('',#1208);
#353=VERTEX_POINT('',#1212);
#354=VERTEX_POINT('',#1214);
#355=VERTEX_POINT('',#1218);
#356=VERTEX_POINT('',#1220);
#357=VERTEX_POINT('',#1224);
#358=VERTEX_POINT('',#1226);
#359=VERTEX_POINT('',#1230);
#360=VERTEX_POINT('',#1232);
#361=VERTEX_POINT('',#1236);
#362=VERTEX_POINT('',#1238);
#363=VERTEX_POINT('',#1242);
#364=VERTEX_POINT('',#1244);
#365=EDGE_CURVE('',#293,#294,#133,.T.);
#366=EDGE_CURVE('',#293,#295,#134,.T.);
#367=EDGE_CURVE('',#296,#295,#135,.T.);
#368=EDGE_CURVE('',#294,#296,#136,.T.);
#369=EDGE_CURVE('',#294,#297,#137,.T.);
#370=EDGE_CURVE('',#298,#296,#138,.T.);
#371=EDGE_CURVE('',#297,#298,#139,.T.);
#372=EDGE_CURVE('',#297,#299,#15,.T.);
#373=EDGE_CURVE('',#300,#298,#16,.T.);
#374=EDGE_CURVE('',#299,#300,#140,.T.);
#375=EDGE_CURVE('',#299,#301,#141,.T.);
#376=EDGE_CURVE('',#302,#300,#142,.T.);
#377=EDGE_CURVE('',#301,#302,#143,.T.);
#378=EDGE_CURVE('',#301,#303,#17,.T.);
#379=EDGE_CURVE('',#304,#302,#18,.T.);
#380=EDGE_CURVE('',#303,#304,#144,.T.);
#381=EDGE_CURVE('',#303,#305,#145,.T.);
#382=EDGE_CURVE('',#306,#304,#146,.T.);
#383=EDGE_CURVE('',#305,#306,#147,.T.);
#384=EDGE_CURVE('',#305,#307,#19,.T.);
#385=EDGE_CURVE('',#308,#306,#20,.T.);
#386=EDGE_CURVE('',#307,#308,#148,.T.);
#387=EDGE_CURVE('',#307,#309,#149,.T.);
#388=EDGE_CURVE('',#310,#308,#150,.T.);
#389=EDGE_CURVE('',#309,#310,#151,.T.);
#390=EDGE_CURVE('',#309,#311,#152,.T.);
#391=EDGE_CURVE('',#312,#310,#153,.T.);
#392=EDGE_CURVE('',#311,#312,#154,.T.);
#393=EDGE_CURVE('',#311,#313,#155,.T.);
#394=EDGE_CURVE('',#314,#312,#156,.T.);
#395=EDGE_CURVE('',#313,#314,#157,.T.);
#396=EDGE_CURVE('',#313,#315,#21,.T.);
#397=EDGE_CURVE('',#316,#314,#22,.T.);
#398=EDGE_CURVE('',#315,#316,#158,.T.);
#399=EDGE_CURVE('',#315,#317,#159,.T.);
#400=EDGE_CURVE('',#318,#316,#160,.T.);
#401=EDGE_CURVE('',#317,#318,#161,.T.);
#402=EDGE_CURVE('',#317,#319,#23,.T.);
#403=EDGE_CURVE('',#320,#318,#24,.T.);
#404=EDGE_CURVE('',#319,#320,#162,.T.);
#405=EDGE_CURVE('',#319,#321,#163,.T.);
#406=EDGE_CURVE('',#322,#320,#164,.T.);
#407=EDGE_CURVE('',#321,#322,#165,.T.);
#408=EDGE_CURVE('',#321,#323,#25,.T.);
#409=EDGE_CURVE('',#324,#322,#26,.T.);
#410=EDGE_CURVE('',#323,#324,#166,.T.);
#411=EDGE_CURVE('',#323,#325,#167,.T.);
#412=EDGE_CURVE('',#326,#324,#168,.T.);
#413=EDGE_CURVE('',#325,#326,#169,.T.);
#414=EDGE_CURVE('',#325,#327,#170,.T.);
#415=EDGE_CURVE('',#328,#326,#171,.T.);
#416=EDGE_CURVE('',#327,#328,#172,.T.);
#417=EDGE_CURVE('',#327,#329,#173,.T.);
#418=EDGE_CURVE('',#330,#328,#174,.T.);
#419=EDGE_CURVE('',#329,#330,#175,.T.);
#420=EDGE_CURVE('',#329,#331,#27,.T.);
#421=EDGE_CURVE('',#332,#330,#28,.T.);
#422=EDGE_CURVE('',#331,#332,#176,.T.);
#423=EDGE_CURVE('',#331,#333,#177,.T.);
#424=EDGE_CURVE('',#334,#332,#178,.T.);
#425=EDGE_CURVE('',#333,#334,#179,.T.);
#426=EDGE_CURVE('',#333,#335,#29,.T.);
#427=EDGE_CURVE('',#336,#334,#30,.T.);
#428=EDGE_CURVE('',#335,#336,#180,.T.);
#429=EDGE_CURVE('',#335,#337,#181,.T.);
#430=EDGE_CURVE('',#338,#336,#182,.T.);
#431=EDGE_CURVE('',#337,#338,#183,.T.);
#432=EDGE_CURVE('',#337,#339,#31,.T.);
#433=EDGE_CURVE('',#340,#338,#32,.T.);
#434=EDGE_CURVE('',#339,#340,#184,.T.);
#435=EDGE_CURVE('',#339,#341,#185,.T.);
#436=EDGE_CURVE('',#342,#340,#186,.T.);
#437=EDGE_CURVE('',#341,#342,#187,.T.);
#438=EDGE_CURVE('',#341,#343,#188,.T.);
#439=EDGE_CURVE('',#344,#342,#189,.T.);
#440=EDGE_CURVE('',#343,#344,#190,.T.);
#441=EDGE_CURVE('',#343,#345,#191,.T.);
#442=EDGE_CURVE('',#346,#344,#192,.T.);
#443=EDGE_CURVE('',#345,#346,#193,.T.);
#444=EDGE_CURVE('',#345,#347,#33,.T.);
#445=EDGE_CURVE('',#348,#346,#34,.T.);
#446=EDGE_CURVE('',#347,#348,#194,.T.);
#447=EDGE_CURVE('',#347,#349,#195,.T.);
#448=EDGE_CURVE('',#350,#348,#196,.T.);
#449=EDGE_CURVE('',#349,#350,#197,.T.);
#450=EDGE_CURVE('',#349,#351,#35,.T.);
#451=EDGE_CURVE('',#352,#350,#36,.T.);
#452=EDGE_CURVE('',#351,#352,#198,.T.);
#453=EDGE_CURVE('',#351,#353,#199,.T.);
#454=EDGE_CURVE('',#354,#352,#200,.T.);
#455=EDGE_CURVE('',#353,#354,#201,.T.);
#456=EDGE_CURVE('',#353,#355,#37,.T.);
#457=EDGE_CURVE('',#356,#354,#38,.T.);
#458=EDGE_CURVE('',#355,#356,#202,.T.);
#459=EDGE_CURVE('',#355,#357,#203,.T.);
#460=EDGE_CURVE('',#358,#356,#204,.T.);
#461=EDGE_CURVE('',#357,#358,#205,.T.);
#462=EDGE_CURVE('',#357,#359,#39,.T.);
#463=EDGE_CURVE('',#360,#358,#40,.T.);
#464=EDGE_CURVE('',#359,#360,#206,.T.);
#465=EDGE_CURVE('',#359,#361,#207,.T.);
#466=EDGE_CURVE('',#362,#360,#208,.T.);
#467=EDGE_CURVE('',#361,#362,#209,.T.);
#468=EDGE_CURVE('',#361,#363,#41,.T.);
#469=EDGE_CURVE('',#364,#362,#42,.T.);
#470=EDGE_CURVE('',#363,#364,#210,.T.);
#471=EDGE_CURVE('',#363,#293,#211,.T.);
#472=EDGE_CURVE('',#295,#364,#212,.T.);
#473=ORIENTED_EDGE('',*,*,#365,.F.);
#474=ORIENTED_EDGE('',*,*,#366,.T.);
#475=ORIENTED_EDGE('',*,*,#367,.F.);
#476=ORIENTED_EDGE('',*,*,#368,.F.);
#477=ORIENTED_EDGE('',*,*,#369,.F.);
#478=ORIENTED_EDGE('',*,*,#368,.T.);
#479=ORIENTED_EDGE('',*,*,#370,.F.);
#480=ORIENTED_EDGE('',*,*,#371,.F.);
#481=ORIENTED_EDGE('',*,*,#372,.F.);
#482=ORIENTED_EDGE('',*,*,#371,.T.);
#483=ORIENTED_EDGE('',*,*,#373,.F.);
#484=ORIENTED_EDGE('',*,*,#374,.F.);
#485=ORIENTED_EDGE('',*,*,#375,.F.);
#486=ORIENTED_EDGE('',*,*,#374,.T.);
#487=ORIENTED_EDGE('',*,*,#376,.F.);
#488=ORIENTED_EDGE('',*,*,#377,.F.);
#489=ORIENTED_EDGE('',*,*,#378,.F.);
#490=ORIENTED_EDGE('',*,*,#377,.T.);
#491=ORIENTED_EDGE('',*,*,#379,.F.);
#492=ORIENTED_EDGE('',*,*,#380,.F.);
#493=ORIENTED_EDGE('',*,*,#381,.F.);
#494=ORIENTED_EDGE('',*,*,#380,.T.);
#495=ORIENTED_EDGE('',*,*,#382,.F.);
#496=ORIENTED_EDGE('',*,*,#383,.F.);
#497=ORIENTED_EDGE('',*,*,#384,.F.);
#498=ORIENTED_EDGE('',*,*,#383,.T.);
#499=ORIENTED_EDGE('',*,*,#385,.F.);
#500=ORIENTED_EDGE('',*,*,#386,.F.);
#501=ORIENTED_EDGE('',*,*,#387,.F.);
#502=ORIENTED_EDGE('',*,*,#386,.T.);
#503=ORIENTED_EDGE('',*,*,#388,.F.);
#504=ORIENTED_EDGE('',*,*,#389,.F.);
#505=ORIENTED_EDGE('',*,*,#390,.F.);
#506=ORIENTED_EDGE('',*,*,#389,.T.);
#507=ORIENTED_EDGE('',*,*,#391,.F.);
#508=ORIENTED_EDGE('',*,*,#392,.F.);
#509=ORIENTED_EDGE('',*,*,#393,.F.);
#510=ORIENTED_EDGE('',*,*,#392,.T.);
#511=ORIENTED_EDGE('',*,*,#394,.F.);
#512=ORIENTED_EDGE('',*,*,#395,.F.);
#513=ORIENTED_EDGE('',*,*,#396,.F.);
#514=ORIENTED_EDGE('',*,*,#395,.T.);
#515=ORIENTED_EDGE('',*,*,#397,.F.);
#516=ORIENTED_EDGE('',*,*,#398,.F.);
#517=ORIENTED_EDGE('',*,*,#399,.F.);
#518=ORIENTED_EDGE('',*,*,#398,.T.);
#519=ORIENTED_EDGE('',*,*,#400,.F.);
#520=ORIENTED_EDGE('',*,*,#401,.F.);
#521=ORIENTED_EDGE('',*,*,#402,.F.);
#522=ORIENTED_EDGE('',*,*,#401,.T.);
#523=ORIENTED_EDGE('',*,*,#403,.F.);
#524=ORIENTED_EDGE('',*,*,#404,.F.);
#525=ORIENTED_EDGE('',*,*,#405,.F.);
#526=ORIENTED_EDGE('',*,*,#404,.T.);
#527=ORIENTED_EDGE('',*,*,#406,.F.);
#528=ORIENTED_EDGE('',*,*,#407,.F.);
#529=ORIENTED_EDGE('',*,*,#408,.F.);
#530=ORIENTED_EDGE('',*,*,#407,.T.);
#531=ORIENTED_EDGE('',*,*,#409,.F.);
#532=ORIENTED_EDGE('',*,*,#410,.F.);
#533=ORIENTED_EDGE('',*,*,#411,.F.);
#534=ORIENTED_EDGE('',*,*,#410,.T.);
#535=ORIENTED_EDGE('',*,*,#412,.F.);
#536=ORIENTED_EDGE('',*,*,#413,.F.);
#537=ORIENTED_EDGE('',*,*,#414,.F.);
#538=ORIENTED_EDGE('',*,*,#413,.T.);
#539=ORIENTED_EDGE('',*,*,#415,.F.);
#540=ORIENTED_EDGE('',*,*,#416,.F.);
#541=ORIENTED_EDGE('',*,*,#417,.F.);
#542=ORIENTED_EDGE('',*,*,#416,.T.);
#543=ORIENTED_EDGE('',*,*,#418,.F.);
#544=ORIENTED_EDGE('',*,*,#419,.F.);
#545=ORIENTED_EDGE('',*,*,#420,.F.);
#546=ORIENTED_EDGE('',*,*,#419,.T.);
#547=ORIENTED_EDGE('',*,*,#421,.F.);
#548=ORIENTED_EDGE('',*,*,#422,.F.);
#549=ORIENTED_EDGE('',*,*,#423,.F.);
#550=ORIENTED_EDGE('',*,*,#422,.T.);
#551=ORIENTED_EDGE('',*,*,#424,.F.);
#552=ORIENTED_EDGE('',*,*,#425,.F.);
#553=ORIENTED_EDGE('',*,*,#426,.F.);
#554=ORIENTED_EDGE('',*,*,#425,.T.);
#555=ORIENTED_EDGE('',*,*,#427,.F.);
#556=ORIENTED_EDGE('',*,*,#428,.F.);
#557=ORIENTED_EDGE('',*,*,#429,.F.);
#558=ORIENTED_EDGE('',*,*,#428,.T.);
#559=ORIENTED_EDGE('',*,*,#430,.F.);
#560=ORIENTED_EDGE('',*,*,#431,.F.);
#561=ORIENTED_EDGE('',*,*,#432,.F.);
#562=ORIENTED_EDGE('',*,*,#431,.T.);
#563=ORIENTED_EDGE('',*,*,#433,.F.);
#564=ORIENTED_EDGE('',*,*,#434,.F.);
#565=ORIENTED_EDGE('',*,*,#435,.F.);
#566=ORIENTED_EDGE('',*,*,#434,.T.);
#567=ORIENTED_EDGE('',*,*,#436,.F.);
#568=ORIENTED_EDGE('',*,*,#437,.F.);
#569=ORIENTED_EDGE('',*,*,#438,.F.);
#570=ORIENTED_EDGE('',*,*,#437,.T.);
#571=ORIENTED_EDGE('',*,*,#439,.F.);
#572=ORIENTED_EDGE('',*,*,#440,.F.);
#573=ORIENTED_EDGE('',*,*,#441,.F.);
#574=ORIENTED_EDGE('',*,*,#440,.T.);
#575=ORIENTED_EDGE('',*,*,#442,.F.);
#576=ORIENTED_EDGE('',*,*,#443,.F.);
#577=ORIENTED_EDGE('',*,*,#444,.F.);
#578=ORIENTED_EDGE('',*,*,#443,.T.);
#579=ORIENTED_EDGE('',*,*,#445,.F.);
#580=ORIENTED_EDGE('',*,*,#446,.F.);
#581=ORIENTED_EDGE('',*,*,#447,.F.);
#582=ORIENTED_EDGE('',*,*,#446,.T.);
#583=ORIENTED_EDGE('',*,*,#448,.F.);
#584=ORIENTED_EDGE('',*,*,#449,.F.);
#585=ORIENTED_EDGE('',*,*,#450,.F.);
#586=ORIENTED_EDGE('',*,*,#449,.T.);
#587=ORIENTED_EDGE('',*,*,#451,.F.);
#588=ORIENTED_EDGE('',*,*,#452,.F.);
#589=ORIENTED_EDGE('',*,*,#453,.F.);
#590=ORIENTED_EDGE('',*,*,#452,.T.);
#591=ORIENTED_EDGE('',*,*,#454,.F.);
#592=ORIENTED_EDGE('',*,*,#455,.F.);
#593=ORIENTED_EDGE('',*,*,#456,.F.);
#594=ORIENTED_EDGE('',*,*,#455,.T.);
#595=ORIENTED_EDGE('',*,*,#457,.F.);
#596=ORIENTED_EDGE('',*,*,#458,.F.);
#597=ORIENTED_EDGE('',*,*,#459,.F.);
#598=ORIENTED_EDGE('',*,*,#458,.T.);
#599=ORIENTED_EDGE('',*,*,#460,.F.);
#600=ORIENTED_EDGE('',*,*,#461,.F.);
#601=ORIENTED_EDGE('',*,*,#462,.F.);
#602=ORIENTED_EDGE('',*,*,#461,.T.);
#603=ORIENTED_EDGE('',*,*,#463,.F.);
#604=ORIENTED_EDGE('',*,*,#464,.F.);
#605=ORIENTED_EDGE('',*,*,#465,.F.);
#606=ORIENTED_EDGE('',*,*,#464,.T.);
#607=ORIENTED_EDGE('',*,*,#466,.F.);
#608=ORIENTED_EDGE('',*,*,#467,.F.);
#609=ORIENTED_EDGE('',*,*,#468,.F.);
#610=ORIENTED_EDGE('',*,*,#467,.T.);
#611=ORIENTED_EDGE('',*,*,#469,.F.);
#612=ORIENTED_EDGE('',*,*,#470,.F.);
#613=ORIENTED_EDGE('',*,*,#471,.F.);
#614=ORIENTED_EDGE('',*,*,#470,.T.);
#615=ORIENTED_EDGE('',*,*,#472,.F.);
#616=ORIENTED_EDGE('',*,*,#366,.F.);
#617=ORIENTED_EDGE('',*,*,#472,.T.);
#618=ORIENTED_EDGE('',*,*,#469,.T.);
#619=ORIENTED_EDGE('',*,*,#466,.T.);
#620=ORIENTED_EDGE('',*,*,#463,.T.);
#621=ORIENTED_EDGE('',*,*,#460,.T.);
#622=ORIENTED_EDGE('',*,*,#457,.T.);
#623=ORIENTED_EDGE('',*,*,#454,.T.);
#624=ORIENTED_EDGE('',*,*,#451,.T.);
#625=ORIENTED_EDGE('',*,*,#448,.T.);
#626=ORIENTED_EDGE('',*,*,#445,.T.);
#627=ORIENTED_EDGE('',*,*,#442,.T.);
#628=ORIENTED_EDGE('',*,*,#439,.T.);
#629=ORIENTED_EDGE('',*,*,#436,.T.);
#630=ORIENTED_EDGE('',*,*,#433,.T.);
#631=ORIENTED_EDGE('',*,*,#430,.T.);
#632=ORIENTED_EDGE('',*,*,#427,.T.);
#633=ORIENTED_EDGE('',*,*,#424,.T.);
#634=ORIENTED_EDGE('',*,*,#421,.T.);
#635=ORIENTED_EDGE('',*,*,#418,.T.);
#636=ORIENTED_EDGE('',*,*,#415,.T.);
#637=ORIENTED_EDGE('',*,*,#412,.T.);
#638=ORIENTED_EDGE('',*,*,#409,.T.);
#639=ORIENTED_EDGE('',*,*,#406,.T.);
#640=ORIENTED_EDGE('',*,*,#403,.T.);
#641=ORIENTED_EDGE('',*,*,#400,.T.);
#642=ORIENTED_EDGE('',*,*,#397,.T.);
#643=ORIENTED_EDGE('',*,*,#394,.T.);
#644=ORIENTED_EDGE('',*,*,#391,.T.);
#645=ORIENTED_EDGE('',*,*,#388,.T.);
#646=ORIENTED_EDGE('',*,*,#385,.T.);
#647=ORIENTED_EDGE('',*,*,#382,.T.);
#648=ORIENTED_EDGE('',*,*,#379,.T.);
#649=ORIENTED_EDGE('',*,*,#376,.T.);
#650=ORIENTED_EDGE('',*,*,#373,.T.);
#651=ORIENTED_EDGE('',*,*,#370,.T.);
#652=ORIENTED_EDGE('',*,*,#367,.T.);
#653=ORIENTED_EDGE('',*,*,#471,.T.);
#654=ORIENTED_EDGE('',*,*,#365,.T.);
#655=ORIENTED_EDGE('',*,*,#369,.T.);
#656=ORIENTED_EDGE('',*,*,#372,.T.);
#657=ORIENTED_EDGE('',*,*,#375,.T.);
#658=ORIENTED_EDGE('',*,*,#378,.T.);
#659=ORIENTED_EDGE('',*,*,#381,.T.);
#660=ORIENTED_EDGE('',*,*,#384,.T.);
#661=ORIENTED_EDGE('',*,*,#387,.T.);
#662=ORIENTED_EDGE('',*,*,#390,.T.);
#663=ORIENTED_EDGE('',*,*,#393,.T.);
#664=ORIENTED_EDGE('',*,*,#396,.T.);
#665=ORIENTED_EDGE('',*,*,#399,.T.);
#666=ORIENTED_EDGE('',*,*,#402,.T.);
#667=ORIENTED_EDGE('',*,*,#405,.T.);
#668=ORIENTED_EDGE('',*,*,#408,.T.);
#669=ORIENTED_EDGE('',*,*,#411,.T.);
#670=ORIENTED_EDGE('',*,*,#414,.T.);
#671=ORIENTED_EDGE('',*,*,#417,.T.);
#672=ORIENTED_EDGE('',*,*,#420,.T.);
#673=ORIENTED_EDGE('',*,*,#423,.T.);
#674=ORIENTED_EDGE('',*,*,#426,.T.);
#675=ORIENTED_EDGE('',*,*,#429,.T.);
#676=ORIENTED_EDGE('',*,*,#432,.T.);
#677=ORIENTED_EDGE('',*,*,#435,.T.);
#678=ORIENTED_EDGE('',*,*,#438,.T.);
#679=ORIENTED_EDGE('',*,*,#441,.T.);
#680=ORIENTED_EDGE('',*,*,#444,.T.);
#681=ORIENTED_EDGE('',*,*,#447,.T.);
#682=ORIENTED_EDGE('',*,*,#450,.T.);
#683=ORIENTED_EDGE('',*,*,#453,.T.);
#684=ORIENTED_EDGE('',*,*,#456,.T.);
#685=ORIENTED_EDGE('',*,*,#459,.T.);
#686=ORIENTED_EDGE('',*,*,#462,.T.);
#687=ORIENTED_EDGE('',*,*,#465,.T.);
#688=ORIENTED_EDGE('',*,*,#468,.T.);
#689=PLANE('',#753);
#690=PLANE('',#754);
#691=PLANE('',#758);
#692=PLANE('',#762);
#693=PLANE('',#766);
#694=PLANE('',#767);
#695=PLANE('',#768);
#696=PLANE('',#772);
#697=PLANE('',#776);
#698=PLANE('',#780);
#699=PLANE('',#781);
#700=PLANE('',#782);
#701=PLANE('',#786);
#702=PLANE('',#790);
#703=PLANE('',#794);
#704=PLANE('',#795);
#705=PLANE('',#796);
#706=PLANE('',#800);
#707=PLANE('',#804);
#708=PLANE('',#808);
#709=PLANE('',#812);
#710=PLANE('',#816);
#711=PLANE('',#817);
#712=PLANE('',#818);
#713=ADVANCED_FACE('',(#57),#689,.T.);
#714=ADVANCED_FACE('',(#58),#690,.T.);
#715=ADVANCED_FACE('',(#59),#43,.F.);
#716=ADVANCED_FACE('',(#60),#691,.T.);
#717=ADVANCED_FACE('',(#61),#44,.F.);
#718=ADVANCED_FACE('',(#62),#692,.T.);
#719=ADVANCED_FACE('',(#63),#45,.F.);
#720=ADVANCED_FACE('',(#64),#693,.T.);
#721=ADVANCED_FACE('',(#65),#694,.T.);
#722=ADVANCED_FACE('',(#66),#695,.T.);
#723=ADVANCED_FACE('',(#67),#46,.F.);
#724=ADVANCED_FACE('',(#68),#696,.T.);
#725=ADVANCED_FACE('',(#69),#47,.F.);
#726=ADVANCED_FACE('',(#70),#697,.T.);
#727=ADVANCED_FACE('',(#71),#48,.F.);
#728=ADVANCED_FACE('',(#72),#698,.T.);
#729=ADVANCED_FACE('',(#73),#699,.T.);
#730=ADVANCED_FACE('',(#74),#700,.T.);
#731=ADVANCED_FACE('',(#75),#49,.F.);
#732=ADVANCED_FACE('',(#76),#701,.T.);
#733=ADVANCED_FACE('',(#77),#50,.F.);
#734=ADVANCED_FACE('',(#78),#702,.T.);
#735=ADVANCED_FACE('',(#79),#51,.F.);
#736=ADVANCED_FACE('',(#80),#703,.T.);
#737=ADVANCED_FACE('',(#81),#704,.T.);
#738=ADVANCED_FACE('',(#82),#705,.T.);
#739=ADVANCED_FACE('',(#83),#52,.F.);
#740=ADVANCED_FACE('',(#84),#706,.T.);
#741=ADVANCED_FACE('',(#85),#53,.F.);
#742=ADVANCED_FACE('',(#86),#707,.T.);
#743=ADVANCED_FACE('',(#87),#54,.F.);
#744=ADVANCED_FACE('',(#88),#708,.T.);
#745=ADVANCED_FACE('',(#89),#55,.F.);
#746=ADVANCED_FACE('',(#90),#709,.T.);
#747=ADVANCED_FACE('',(#91),#56,.F.);
#748=ADVANCED_FACE('',(#92),#710,.T.);
#749=ADVANCED_FACE('',(#93),#711,.T.);
#750=ADVANCED_FACE('',(#94),#712,.F.);
#751=CLOSED_SHELL('',(#713,#714,#715,#716,#717,#718,#719,#720,#721,#722,
#723,#724,#725,#726,#727,#728,#729,#730,#731,#732,#733,#734,#735,#736,#737,
#738,#739,#740,#741,#742,#743,#744,#745,#746,#747,#748,#749,#750));
#752=AXIS2_PLACEMENT_3D('',#1033,#819,#820);
#753=AXIS2_PLACEMENT_3D('',#1034,#821,#822);
#754=AXIS2_PLACEMENT_3D('',#1043,#827,#828);
#755=AXIS2_PLACEMENT_3D('',#1049,#832,#833);
#756=AXIS2_PLACEMENT_3D('',#1051,#834,#835);
#757=AXIS2_PLACEMENT_3D('',#1053,#836,#837);
#758=AXIS2_PLACEMENT_3D('',#1055,#839,#840);
#759=AXIS2_PLACEMENT_3D('',#1061,#844,#845);
#760=AXIS2_PLACEMENT_3D('',#1063,#846,#847);
#761=AXIS2_PLACEMENT_3D('',#1065,#848,#849);
#762=AXIS2_PLACEMENT_3D('',#1067,#851,#852);
#763=AXIS2_PLACEMENT_3D('',#1073,#856,#857);
#764=AXIS2_PLACEMENT_3D('',#1075,#858,#859);
#765=AXIS2_PLACEMENT_3D('',#1077,#860,#861);
#766=AXIS2_PLACEMENT_3D('',#1079,#863,#864);
#767=AXIS2_PLACEMENT_3D('',#1085,#868,#869);
#768=AXIS2_PLACEMENT_3D('',#1091,#873,#874);
#769=AXIS2_PLACEMENT_3D('',#1097,#878,#879);
#770=AXIS2_PLACEMENT_3D('',#1099,#880,#881);
#771=AXIS2_PLACEMENT_3D('',#1101,#882,#883);
#772=AXIS2_PLACEMENT_3D('',#1103,#885,#886);
#773=AXIS2_PLACEMENT_3D('',#1109,#890,#891);
#774=AXIS2_PLACEMENT_3D('',#1111,#892,#893);
#775=AXIS2_PLACEMENT_3D('',#1113,#894,#895);
#776=AXIS2_PLACEMENT_3D('',#1115,#897,#898);
#777=AXIS2_PLACEMENT_3D('',#1121,#902,#903);
#778=AXIS2_PLACEMENT_3D('',#1123,#904,#905);
#779=AXIS2_PLACEMENT_3D('',#1125,#906,#907);
#780=AXIS2_PLACEMENT_3D('',#1127,#909,#910);
#781=AXIS2_PLACEMENT_3D('',#1133,#914,#915);
#782=AXIS2_PLACEMENT_3D('',#1139,#919,#920);
#783=AXIS2_PLACEMENT_3D('',#1145,#924,#925);
#784=AXIS2_PLACEMENT_3D('',#1147,#926,#927);
#785=AXIS2_PLACEMENT_3D('',#1149,#928,#929);
#786=AXIS2_PLACEMENT_3D('',#1151,#931,#932);
#787=AXIS2_PLACEMENT_3D('',#1157,#936,#937);
#788=AXIS2_PLACEMENT_3D('',#1159,#938,#939);
#789=AXIS2_PLACEMENT_3D('',#1161,#940,#941);
#790=AXIS2_PLACEMENT_3D('',#1163,#943,#944);
#791=AXIS2_PLACEMENT_3D('',#1169,#948,#949);
#792=AXIS2_PLACEMENT_3D('',#1171,#950,#951);
#793=AXIS2_PLACEMENT_3D('',#1173,#952,#953);
#794=AXIS2_PLACEMENT_3D('',#1175,#955,#956);
#795=AXIS2_PLACEMENT_3D('',#1181,#960,#961);
#796=AXIS2_PLACEMENT_3D('',#1187,#965,#966);
#797=AXIS2_PLACEMENT_3D('',#1193,#970,#971);
#798=AXIS2_PLACEMENT_3D('',#1195,#972,#973);
#799=AXIS2_PLACEMENT_3D('',#1197,#974,#975);
#800=AXIS2_PLACEMENT_3D('',#1199,#977,#978);
#801=AXIS2_PLACEMENT_3D('',#1205,#982,#983);
#802=AXIS2_PLACEMENT_3D('',#1207,#984,#985);
#803=AXIS2_PLACEMENT_3D('',#1209,#986,#987);
#804=AXIS2_PLACEMENT_3D('',#1211,#989,#990);
#805=AXIS2_PLACEMENT_3D('',#1217,#994,#995);
#806=AXIS2_PLACEMENT_3D('',#1219,#996,#997);
#807=AXIS2_PLACEMENT_3D('',#1221,#998,#999);
#808=AXIS2_PLACEMENT_3D('',#1223,#1001,#1002);
#809=AXIS2_PLACEMENT_3D('',#1229,#1006,#1007);
#810=AXIS2_PLACEMENT_3D('',#1231,#1008,#1009);
#811=AXIS2_PLACEMENT_3D('',#1233,#1010,#1011);
#812=AXIS2_PLACEMENT_3D('',#1235,#1013,#1014);
#813=AXIS2_PLACEMENT_3D('',#1241,#1018,#1019);
#814=AXIS2_PLACEMENT_3D('',#1243,#1020,#1021);
#815=AXIS2_PLACEMENT_3D('',#1245,#1022,#1023);
#816=AXIS2_PLACEMENT_3D('',#1247,#1025,#1026);
#817=AXIS2_PLACEMENT_3D('',#1250,#1029,#1030);
#818=AXIS2_PLACEMENT_3D('',#1251,#1031,#1032);
#819=DIRECTION('axis',(0.,0.,1.));
#820=DIRECTION('refdir',(1.,0.,0.));
#821=DIRECTION('center_axis',(0.,1.,0.));
#822=DIRECTION('ref_axis',(-1.,0.,0.));
#823=DIRECTION('',(1.,0.,0.));
#824=DIRECTION('',(0.,0.,1.));
#825=DIRECTION('',(-1.,0.,0.));
#826=DIRECTION('',(0.,0.,1.));
#827=DIRECTION('center_axis',(1.,0.,0.));
#828=DIRECTION('ref_axis',(0.,1.,0.));
#829=DIRECTION('',(0.,-1.,0.));
#830=DIRECTION('',(0.,1.,0.));
#831=DIRECTION('',(0.,0.,1.));
#832=DIRECTION('center_axis',(0.,0.,1.));
#833=DIRECTION('ref_axis',(-1.,0.,0.));
#834=DIRECTION('center_axis',(0.,0.,1.));
#835=DIRECTION('ref_axis',(-1.,0.,0.));
#836=DIRECTION('center_axis',(0.,0.,-1.));
#837=DIRECTION('ref_axis',(-1.,0.,0.));
#838=DIRECTION('',(0.,0.,1.));
#839=DIRECTION('center_axis',(1.,0.,0.));
#840=DIRECTION('ref_axis',(0.,1.,0.));
#841=DIRECTION('',(0.,-1.,0.));
#842=DIRECTION('',(0.,1.,0.));
#843=DIRECTION('',(0.,0.,1.));
#844=DIRECTION('center_axis',(0.,0.,1.));
#845=DIRECTION('ref_axis',(-1.,0.,0.));
#846=DIRECTION('center_axis',(0.,0.,1.));
#847=DIRECTION('ref_axis',(-1.,0.,0.));
#848=DIRECTION('center_axis',(0.,0.,-1.));
#849=DIRECTION('ref_axis',(-1.,0.,0.));
#850=DIRECTION('',(0.,0.,1.));
#851=DIRECTION('center_axis',(1.,0.,0.));
#852=DIRECTION('ref_axis',(0.,1.,0.));
#853=DIRECTION('',(0.,-1.,0.));
#854=DIRECTION('',(0.,1.,0.));
#855=DIRECTION('',(0.,0.,1.));
#856=DIRECTION('center_axis',(0.,0.,1.));
#857=DIRECTION('ref_axis',(-1.,0.,0.));
#858=DIRECTION('center_axis',(0.,0.,1.));
#859=DIRECTION('ref_axis',(-1.,0.,0.));
#860=DIRECTION('center_axis',(0.,0.,-1.));
#861=DIRECTION('ref_axis',(-1.,0.,0.));
#862=DIRECTION('',(0.,0.,1.));
#863=DIRECTION('center_axis',(0.,1.,0.));
#864=DIRECTION('ref_axis',(-1.,0.,0.));
#865=DIRECTION('',(1.,0.,0.));
#866=DIRECTION('',(-1.,0.,0.));
#867=DIRECTION('',(0.,0.,1.));
#868=DIRECTION('center_axis',(1.,0.,0.));
#869=DIRECTION('ref_axis',(0.,1.,0.));
#870=DIRECTION('',(0.,-1.,0.));
#871=DIRECTION('',(0.,1.,0.));
#872=DIRECTION('',(0.,0.,1.));
#873=DIRECTION('center_axis',(0.,-1.,0.));
#874=DIRECTION('ref_axis',(1.,0.,0.));
#875=DIRECTION('',(-1.,0.,0.));
#876=DIRECTION('',(1.,0.,0.));
#877=DIRECTION('',(0.,0.,1.));
#878=DIRECTION('center_axis',(0.,0.,1.));
#879=DIRECTION('ref_axis',(0.,1.,0.));
#880=DIRECTION('center_axis',(0.,0.,1.));
#881=DIRECTION('ref_axis',(0.,1.,0.));
#882=DIRECTION('center_axis',(0.,0.,-1.));
#883=DIRECTION('ref_axis',(0.,1.,0.));
#884=DIRECTION('',(0.,0.,1.));
#885=DIRECTION('center_axis',(0.999990964670101,-0.00425095026565809,0.));
#886=DIRECTION('ref_axis',(0.00425095026565808,0.999990964670101,0.));
#887=DIRECTION('',(-0.00425095026565808,-0.999990964670101,0.));
#888=DIRECTION('',(0.00425095026565808,0.999990964670101,0.));
#889=DIRECTION('',(0.,0.,1.));
#890=DIRECTION('center_axis',(0.,0.,1.));
#891=DIRECTION('ref_axis',(-1.,0.,0.));
#892=DIRECTION('center_axis',(0.,0.,1.));
#893=DIRECTION('ref_axis',(-1.,0.,0.));
#894=DIRECTION('center_axis',(0.,0.,-1.));
#895=DIRECTION('ref_axis',(-1.,0.,0.));
#896=DIRECTION('',(0.,0.,1.));
#897=DIRECTION('center_axis',(0.999990964670101,-0.00425095026565809,0.));
#898=DIRECTION('ref_axis',(0.00425095026565808,0.999990964670101,0.));
#899=DIRECTION('',(-0.00425095026565808,-0.999990964670101,0.));
#900=DIRECTION('',(0.00425095026565808,0.999990964670101,0.));
#901=DIRECTION('',(0.,0.,1.));
#902=DIRECTION('center_axis',(0.,0.,1.));
#903=DIRECTION('ref_axis',(-1.,0.,0.));
#904=DIRECTION('center_axis',(0.,0.,1.));
#905=DIRECTION('ref_axis',(-1.,0.,0.));
#906=DIRECTION('center_axis',(0.,0.,-1.));
#907=DIRECTION('ref_axis',(-1.,0.,0.));
#908=DIRECTION('',(0.,0.,1.));
#909=DIRECTION('center_axis',(0.999990964670101,-0.00425095026565809,0.));
#910=DIRECTION('ref_axis',(0.00425095026565808,0.999990964670101,0.));
#911=DIRECTION('',(-0.00425095026565808,-0.999990964670101,0.));
#912=DIRECTION('',(0.00425095026565808,0.999990964670101,0.));
#913=DIRECTION('',(0.,0.,1.));
#914=DIRECTION('center_axis',(-0.00425095026565813,-0.999990964670101,0.));
#915=DIRECTION('ref_axis',(0.999990964670101,-0.00425095026565813,0.));
#916=DIRECTION('',(-0.999990964670101,0.00425095026565813,0.));
#917=DIRECTION('',(0.999990964670101,-0.00425095026565813,0.));
#918=DIRECTION('',(0.,0.,1.));
#919=DIRECTION('center_axis',(-1.,0.,0.));
#920=DIRECTION('ref_axis',(0.,-1.,0.));
#921=DIRECTION('',(0.,1.,0.));
#922=DIRECTION('',(0.,-1.,0.));
#923=DIRECTION('',(0.,0.,1.));
#924=DIRECTION('center_axis',(0.,0.,1.));
#925=DIRECTION('ref_axis',(1.,-1.22464679914735E-16,0.));
#926=DIRECTION('center_axis',(0.,0.,1.));
#927=DIRECTION('ref_axis',(-1.,0.,0.));
#928=DIRECTION('center_axis',(0.,0.,-1.));
#929=DIRECTION('ref_axis',(-1.,0.,0.));
#930=DIRECTION('',(0.,0.,1.));
#931=DIRECTION('center_axis',(-1.,0.,0.));
#932=DIRECTION('ref_axis',(0.,-1.,0.));
#933=DIRECTION('',(0.,1.,0.));
#934=DIRECTION('',(0.,-1.,0.));
#935=DIRECTION('',(0.,0.,1.));
#936=DIRECTION('center_axis',(0.,0.,1.));
#937=DIRECTION('ref_axis',(1.,-1.22464679914735E-16,0.));
#938=DIRECTION('center_axis',(0.,0.,1.));
#939=DIRECTION('ref_axis',(-1.,0.,0.));
#940=DIRECTION('center_axis',(0.,0.,-1.));
#941=DIRECTION('ref_axis',(-1.,0.,0.));
#942=DIRECTION('',(0.,0.,1.));
#943=DIRECTION('center_axis',(-1.,0.,0.));
#944=DIRECTION('ref_axis',(0.,-1.,0.));
#945=DIRECTION('',(0.,1.,0.));
#946=DIRECTION('',(0.,-1.,0.));
#947=DIRECTION('',(0.,0.,1.));
#948=DIRECTION('center_axis',(0.,0.,1.));
#949=DIRECTION('ref_axis',(1.,0.,0.));
#950=DIRECTION('center_axis',(0.,0.,1.));
#951=DIRECTION('ref_axis',(1.,0.,0.));
#952=DIRECTION('center_axis',(0.,0.,-1.));
#953=DIRECTION('ref_axis',(1.,0.,0.));
#954=DIRECTION('',(0.,0.,1.));
#955=DIRECTION('center_axis',(0.,-1.,0.));
#956=DIRECTION('ref_axis',(1.,0.,0.));
#957=DIRECTION('',(-1.,0.,0.));
#958=DIRECTION('',(1.,0.,0.));
#959=DIRECTION('',(0.,0.,1.));
#960=DIRECTION('center_axis',(-1.,0.,0.));
#961=DIRECTION('ref_axis',(0.,-1.,0.));
#962=DIRECTION('',(0.,1.,0.));
#963=DIRECTION('',(0.,-1.,0.));
#964=DIRECTION('',(0.,0.,1.));
#965=DIRECTION('center_axis',(0.,1.,0.));
#966=DIRECTION('ref_axis',(-1.,0.,0.));
#967=DIRECTION('',(1.,0.,0.));
#968=DIRECTION('',(-1.,0.,0.));
#969=DIRECTION('',(0.,0.,1.));
#970=DIRECTION('center_axis',(0.,0.,1.));
#971=DIRECTION('ref_axis',(-1.,0.,0.));
#972=DIRECTION('center_axis',(0.,0.,1.));
#973=DIRECTION('ref_axis',(-1.,0.,0.));
#974=DIRECTION('center_axis',(0.,0.,-1.));
#975=DIRECTION('ref_axis',(-1.,0.,0.));
#976=DIRECTION('',(0.,0.,1.));
#977=DIRECTION('center_axis',(0.,1.,0.));
#978=DIRECTION('ref_axis',(-1.,0.,0.));
#979=DIRECTION('',(1.,0.,0.));
#980=DIRECTION('',(-1.,0.,0.));
#981=DIRECTION('',(0.,0.,1.));
#982=DIRECTION('center_axis',(0.,0.,1.));
#983=DIRECTION('ref_axis',(-1.,0.,0.));
#984=DIRECTION('center_axis',(0.,0.,1.));
#985=DIRECTION('ref_axis',(-1.,0.,0.));
#986=DIRECTION('center_axis',(0.,0.,-1.));
#987=DIRECTION('ref_axis',(-1.,0.,0.));
#988=DIRECTION('',(0.,0.,1.));
#989=DIRECTION('center_axis',(0.,1.,0.));
#990=DIRECTION('ref_axis',(-1.,0.,0.));
#991=DIRECTION('',(1.,0.,0.));
#992=DIRECTION('',(-1.,0.,0.));
#993=DIRECTION('',(0.,0.,1.));
#994=DIRECTION('center_axis',(0.,0.,1.));
#995=DIRECTION('ref_axis',(0.,-1.,0.));
#996=DIRECTION('center_axis',(0.,0.,1.));
#997=DIRECTION('ref_axis',(0.,-1.,0.));
#998=DIRECTION('center_axis',(0.,0.,-1.));
#999=DIRECTION('ref_axis',(0.,-1.,0.));
#1000=DIRECTION('',(0.,0.,1.));
#1001=DIRECTION('center_axis',(-1.,0.,0.));
#1002=DIRECTION('ref_axis',(0.,-1.,0.));
#1003=DIRECTION('',(0.,1.,0.));
#1004=DIRECTION('',(0.,-1.,0.));
#1005=DIRECTION('',(0.,0.,1.));
#1006=DIRECTION('center_axis',(0.,0.,1.));
#1007=DIRECTION('ref_axis',(1.,-1.22464679914735E-16,0.));
#1008=DIRECTION('center_axis',(0.,0.,1.));
#1009=DIRECTION('ref_axis',(-1.,0.,0.));
#1010=DIRECTION('center_axis',(0.,0.,-1.));
#1011=DIRECTION('ref_axis',(-1.,0.,0.));
#1012=DIRECTION('',(0.,0.,1.));
#1013=DIRECTION('center_axis',(-1.,0.,0.));
#1014=DIRECTION('ref_axis',(0.,-1.,0.));
#1015=DIRECTION('',(0.,1.,0.));
#1016=DIRECTION('',(0.,-1.,0.));
#1017=DIRECTION('',(0.,0.,1.));
#1018=DIRECTION('center_axis',(0.,0.,1.));
#1019=DIRECTION('ref_axis',(1.,-1.22464679914735E-16,0.));
#1020=DIRECTION('center_axis',(0.,0.,1.));
#1021=DIRECTION('ref_axis',(-1.,0.,0.));
#1022=DIRECTION('center_axis',(0.,0.,-1.));
#1023=DIRECTION('ref_axis',(-1.,0.,0.));
#1024=DIRECTION('',(0.,0.,1.));
#1025=DIRECTION('center_axis',(-1.,0.,0.));
#1026=DIRECTION('ref_axis',(0.,-1.,0.));
#1027=DIRECTION('',(0.,1.,0.));
#1028=DIRECTION('',(0.,-1.,0.));
#1029=DIRECTION('center_axis',(0.,0.,1.));
#1030=DIRECTION('ref_axis',(-1.,0.,0.));
#1031=DIRECTION('center_axis',(0.,0.,1.));
#1032=DIRECTION('ref_axis',(-1.,0.,0.));
#1033=CARTESIAN_POINT('',(0.,0.,0.));
#1034=CARTESIAN_POINT('Origin',(49.499999396503,28.5000004246831,22.51));
#1035=CARTESIAN_POINT('',(41.4999992772937,28.5000004246831,22.51));
#1036=CARTESIAN_POINT('',(49.499999396503,28.5000004246831,22.51));
#1037=CARTESIAN_POINT('',(41.9999992847443,28.5000004246831,22.51));
#1038=CARTESIAN_POINT('',(41.4999992772937,28.5000004246831,26.51));
#1039=CARTESIAN_POINT('',(41.4999992772937,28.5000004246831,22.51));
#1040=CARTESIAN_POINT('',(49.499999396503,28.5000004246831,26.51));
#1041=CARTESIAN_POINT('',(41.9999992847443,28.5000004246831,26.51));
#1042=CARTESIAN_POINT('',(49.499999396503,28.5000004246831,22.51));
#1043=CARTESIAN_POINT('Origin',(49.499999396503,27.8648976405854,22.51));
#1044=CARTESIAN_POINT('',(49.499999396503,27.8648976405854,22.51));
#1045=CARTESIAN_POINT('',(49.499999396503,28.5000004246831,22.51));
#1046=CARTESIAN_POINT('',(49.499999396503,27.8648976405854,26.51));
#1047=CARTESIAN_POINT('',(49.499999396503,28.5000004246831,26.51));
#1048=CARTESIAN_POINT('',(49.499999396503,27.8648976405854,22.51));
#1049=CARTESIAN_POINT('Origin',(49.75,27.375,22.51));
#1050=CARTESIAN_POINT('',(49.499999396503,26.8851023594146,22.51));
#1051=CARTESIAN_POINT('Origin',(49.75,27.375,22.51));
#1052=CARTESIAN_POINT('',(49.499999396503,26.8851023594146,26.51));
#1053=CARTESIAN_POINT('Origin',(49.75,27.375,26.51));
#1054=CARTESIAN_POINT('',(49.499999396503,26.8851023594146,22.51));
#1055=CARTESIAN_POINT('Origin',(49.499999396503,23.3648976405854,22.51));
#1056=CARTESIAN_POINT('',(49.499999396503,23.3648976405854,22.51));
#1057=CARTESIAN_POINT('',(49.499999396503,28.5000004246831,22.51));
#1058=CARTESIAN_POINT('',(49.499999396503,23.3648976405854,26.51));
#1059=CARTESIAN_POINT('',(49.499999396503,28.5000004246831,26.51));
#1060=CARTESIAN_POINT('',(49.499999396503,23.3648976405854,22.51));
#1061=CARTESIAN_POINT('Origin',(49.75,22.875,22.51));
#1062=CARTESIAN_POINT('',(49.499999396503,22.3851023594146,22.51));
#1063=CARTESIAN_POINT('Origin',(49.75,22.875,22.51));
#1064=CARTESIAN_POINT('',(49.499999396503,22.3851023594146,26.51));
#1065=CARTESIAN_POINT('Origin',(49.75,22.875,26.51));
#1066=CARTESIAN_POINT('',(49.499999396503,22.3851023594146,22.51));
#1067=CARTESIAN_POINT('Origin',(49.499999396503,20.0000002980232,22.51));
#1068=CARTESIAN_POINT('',(49.499999396503,20.0000002980232,22.51));
#1069=CARTESIAN_POINT('',(49.499999396503,28.5000004246831,22.51));
#1070=CARTESIAN_POINT('',(49.499999396503,20.0000002980232,26.51));
#1071=CARTESIAN_POINT('',(49.499999396503,28.5000004246831,26.51));
#1072=CARTESIAN_POINT('',(49.499999396503,20.0000002980232,22.51));
#1073=CARTESIAN_POINT('Origin',(50.9999994188547,20.0000002980232,22.51));
#1074=CARTESIAN_POINT('',(50.9999994188547,18.5000002756715,22.51));
#1075=CARTESIAN_POINT('Origin',(50.9999994188547,20.0000002980232,22.51));
#1076=CARTESIAN_POINT('',(50.9999994188547,18.5000002756715,26.51));
#1077=CARTESIAN_POINT('Origin',(50.9999994188547,20.0000002980232,26.51));
#1078=CARTESIAN_POINT('',(50.9999994188547,18.5000002756715,22.51));
#1079=CARTESIAN_POINT('Origin',(58.999999538064,18.5000002756715,22.51));
#1080=CARTESIAN_POINT('',(58.999999538064,18.5000002756715,22.51));
#1081=CARTESIAN_POINT('',(50.9999994188547,18.5000002756715,22.51));
#1082=CARTESIAN_POINT('',(58.999999538064,18.5000002756715,26.51));
#1083=CARTESIAN_POINT('',(50.9999994188547,18.5000002756715,26.51));
#1084=CARTESIAN_POINT('',(58.999999538064,18.5000002756715,22.51));
#1085=CARTESIAN_POINT('Origin',(58.999999538064,11.5000001713634,22.51));
#1086=CARTESIAN_POINT('',(58.999999538064,11.5000001713634,22.51));
#1087=CARTESIAN_POINT('',(58.999999538064,18.5000002756715,22.51));
#1088=CARTESIAN_POINT('',(58.999999538064,11.5000001713634,26.51));
#1089=CARTESIAN_POINT('',(58.999999538064,18.5000002756715,26.51));
#1090=CARTESIAN_POINT('',(58.999999538064,11.5000001713634,22.51));
#1091=CARTESIAN_POINT('Origin',(50.9999994188547,11.5000001713634,22.51));
#1092=CARTESIAN_POINT('',(50.9999994188547,11.5000001713634,22.51));
#1093=CARTESIAN_POINT('',(58.999999538064,11.5000001713634,22.51));
#1094=CARTESIAN_POINT('',(50.9999994188547,11.5000001713634,26.51));
#1095=CARTESIAN_POINT('',(58.999999538064,11.5000001713634,26.51));
#1096=CARTESIAN_POINT('',(50.9999994188547,11.5000001713634,22.51));
#1097=CARTESIAN_POINT('Origin',(50.9999994188547,10.022677804149,22.51));
#1098=CARTESIAN_POINT('',(49.535406561264,9.82916000608875,22.51));
#1099=CARTESIAN_POINT('Origin',(50.9999994188547,10.022677804149,22.51));
#1100=CARTESIAN_POINT('',(49.535406561264,9.82916000608875,26.51));
#1101=CARTESIAN_POINT('Origin',(50.9999994188547,10.022677804149,26.51));
#1102=CARTESIAN_POINT('',(49.535406561264,9.82916000608875,22.51));
#1103=CARTESIAN_POINT('Origin',(49.5271114062337,7.87781276313244,22.51));
#1104=CARTESIAN_POINT('',(49.5271114062337,7.87781276313244,22.51));
#1105=CARTESIAN_POINT('',(49.535406561264,9.82916000608875,22.51));
#1106=CARTESIAN_POINT('',(49.5271114062337,7.87781276313245,26.51));
#1107=CARTESIAN_POINT('',(49.535406561264,9.82916000608875,26.51));
#1108=CARTESIAN_POINT('',(49.5271114062337,7.87781276313244,22.51));
#1109=CARTESIAN_POINT('Origin',(49.75,7.37500000000001,22.51));
#1110=CARTESIAN_POINT('',(49.522844636212,6.87410036863427,22.51));
#1111=CARTESIAN_POINT('Origin',(49.75,7.37500000000001,22.51));
#1112=CARTESIAN_POINT('',(49.522844636212,6.87410036863426,26.51));
#1113=CARTESIAN_POINT('Origin',(49.75,7.37500000000001,26.51));
#1114=CARTESIAN_POINT('',(49.522844636212,6.87410036863427,22.51));
#1115=CARTESIAN_POINT('Origin',(49.507943947166,3.36887130640122,22.51));
#1116=CARTESIAN_POINT('',(49.507943947166,3.36887130640122,22.51));
#1117=CARTESIAN_POINT('',(49.535406561264,9.82916000608875,22.51));
#1118=CARTESIAN_POINT('',(49.507943947166,3.36887130640121,26.51));
#1119=CARTESIAN_POINT('',(49.535406561264,9.82916000608875,26.51));
#1120=CARTESIAN_POINT('',(49.507943947166,3.36887130640122,22.51));
#1121=CARTESIAN_POINT('Origin',(49.75,2.875,22.51));
#1122=CARTESIAN_POINT('',(49.5037538885673,2.38320446056892,22.51));
#1123=CARTESIAN_POINT('Origin',(49.75,2.875,22.51));
#1124=CARTESIAN_POINT('',(49.5037538885673,2.38320446056892,26.51));
#1125=CARTESIAN_POINT('Origin',(49.75,2.875,26.51));
#1126=CARTESIAN_POINT('',(49.5037538885673,2.38320446056892,22.51));
#1127=CARTESIAN_POINT('Origin',(49.499999396503,1.50000002235174,22.51));
#1128=CARTESIAN_POINT('',(49.499999396503,1.50000002235174,22.51));
#1129=CARTESIAN_POINT('',(49.535406561264,9.82916000608875,22.51));
#1130=CARTESIAN_POINT('',(49.499999396503,1.50000002235174,26.51));
#1131=CARTESIAN_POINT('',(49.535406561264,9.82916000608875,26.51));
#1132=CARTESIAN_POINT('',(49.499999396503,1.50000002235174,22.51));
#1133=CARTESIAN_POINT('Origin',(41.5065263675823,1.53398018566955,22.51));
#1134=CARTESIAN_POINT('',(41.5065263675823,1.53398018566955,22.51));
#1135=CARTESIAN_POINT('',(49.499999396503,1.50000002235174,22.51));
#1136=CARTESIAN_POINT('',(41.5065263675823,1.53398018566955,26.51));
#1137=CARTESIAN_POINT('',(49.499999396503,1.50000002235174,26.51));
#1138=CARTESIAN_POINT('',(41.5065263675823,1.53398018566955,22.51));
#1139=CARTESIAN_POINT('Origin',(41.5065263675823,2.38848769518646,22.51));
#1140=CARTESIAN_POINT('',(41.5065263675823,2.38848769518646,22.51));
#1141=CARTESIAN_POINT('',(41.5065263675823,1.53398018566955,22.51));
#1142=CARTESIAN_POINT('',(41.5065263675823,2.38848769518646,26.51));
#1143=CARTESIAN_POINT('',(41.5065263675823,1.53398018566955,26.51));
#1144=CARTESIAN_POINT('',(41.5065263675823,2.38848769518646,22.51));
#1145=CARTESIAN_POINT('Origin',(41.2499999999999,2.875,22.51));
#1146=CARTESIAN_POINT('',(41.5065263675823,3.36151230481353,22.51));
#1147=CARTESIAN_POINT('Origin',(41.2499999999999,2.875,22.51));
#1148=CARTESIAN_POINT('',(41.5065263675823,3.36151230481353,26.51));
#1149=CARTESIAN_POINT('Origin',(41.2499999999999,2.875,26.51));
#1150=CARTESIAN_POINT('',(41.5065263675823,3.36151230481353,22.51));
#1151=CARTESIAN_POINT('Origin',(41.5065263675823,6.88848769518647,22.51));
#1152=CARTESIAN_POINT('',(41.5065263675823,6.88848769518647,22.51));
#1153=CARTESIAN_POINT('',(41.5065263675823,1.53398018566955,22.51));
#1154=CARTESIAN_POINT('',(41.5065263675823,6.88848769518647,26.51));
#1155=CARTESIAN_POINT('',(41.5065263675823,1.53398018566955,26.51));
#1156=CARTESIAN_POINT('',(41.5065263675823,6.88848769518647,22.51));
#1157=CARTESIAN_POINT('Origin',(41.2499999999999,7.37500000000001,22.51));
#1158=CARTESIAN_POINT('',(41.5065263675823,7.86151230481354,22.51));
#1159=CARTESIAN_POINT('Origin',(41.2499999999999,7.37500000000001,22.51));
#1160=CARTESIAN_POINT('',(41.5065263675823,7.86151230481354,26.51));
#1161=CARTESIAN_POINT('Origin',(41.2499999999999,7.37500000000001,26.51));
#1162=CARTESIAN_POINT('',(41.5065263675823,7.86151230481354,22.51));
#1163=CARTESIAN_POINT('Origin',(41.5065263675823,9.99999977648258,22.51));
#1164=CARTESIAN_POINT('',(41.5065263675823,9.99999977648258,22.51));
#1165=CARTESIAN_POINT('',(41.5065263675823,1.53398018566955,22.51));
#1166=CARTESIAN_POINT('',(41.5065263675823,9.99999977648258,26.51));
#1167=CARTESIAN_POINT('',(41.5065263675823,1.53398018566955,26.51));
#1168=CARTESIAN_POINT('',(41.5065263675823,9.99999977648258,22.51));
#1169=CARTESIAN_POINT('Origin',(40.0065118348728,9.99999977648258,22.51));
#1170=CARTESIAN_POINT('',(39.9999992549419,11.5000001713634,22.51));
#1171=CARTESIAN_POINT('Origin',(40.0065118348728,9.99999977648258,22.51));
#1172=CARTESIAN_POINT('',(39.9999992549419,11.5000001713634,26.51));
#1173=CARTESIAN_POINT('Origin',(40.0065118348728,9.99999977648258,26.51));
#1174=CARTESIAN_POINT('',(39.9999992549419,11.5000001713634,22.51));
#1175=CARTESIAN_POINT('Origin',(32.000001296401,11.5000001713634,22.51));
#1176=CARTESIAN_POINT('',(32.000001296401,11.5000001713634,22.51));
#1177=CARTESIAN_POINT('',(39.9999992549419,11.5000001713634,22.51));
#1178=CARTESIAN_POINT('',(32.000001296401,11.5000001713634,26.51));
#1179=CARTESIAN_POINT('',(39.9999992549419,11.5000001713634,26.51));
#1180=CARTESIAN_POINT('',(32.000001296401,11.5000001713634,22.51));
#1181=CARTESIAN_POINT('Origin',(32.000001296401,19.0000002831221,22.51));
#1182=CARTESIAN_POINT('',(32.000001296401,19.0000002831221,22.51));
#1183=CARTESIAN_POINT('',(32.000001296401,11.5000001713634,22.51));
#1184=CARTESIAN_POINT('',(32.000001296401,19.0000002831221,26.51));
#1185=CARTESIAN_POINT('',(32.000001296401,11.5000001713634,26.51));
#1186=CARTESIAN_POINT('',(32.000001296401,19.0000002831221,22.51));
#1187=CARTESIAN_POINT('Origin',(32.8476628126291,19.0000002831221,22.51));
#1188=CARTESIAN_POINT('',(32.8476628126291,19.0000002831221,22.51));
#1189=CARTESIAN_POINT('',(32.000001296401,19.0000002831221,22.51));
#1190=CARTESIAN_POINT('',(32.8476628126291,19.0000002831221,26.51));
#1191=CARTESIAN_POINT('',(32.000001296401,19.0000002831221,26.51));
#1192=CARTESIAN_POINT('',(32.8476628126291,19.0000002831221,22.51));
#1193=CARTESIAN_POINT('Origin',(33.25,19.375,22.51));
#1194=CARTESIAN_POINT('',(33.6523371873708,19.0000002831221,22.51));
#1195=CARTESIAN_POINT('Origin',(33.25,19.375,22.51));
#1196=CARTESIAN_POINT('',(33.6523371873708,19.0000002831221,26.51));
#1197=CARTESIAN_POINT('Origin',(33.25,19.375,26.51));
#1198=CARTESIAN_POINT('',(33.6523371873708,19.0000002831221,22.51));
#1199=CARTESIAN_POINT('Origin',(37.3476628126291,19.0000002831221,22.51));
#1200=CARTESIAN_POINT('',(37.3476628126291,19.0000002831221,22.51));
#1201=CARTESIAN_POINT('',(32.000001296401,19.0000002831221,22.51));
#1202=CARTESIAN_POINT('',(37.3476628126291,19.0000002831221,26.51));
#1203=CARTESIAN_POINT('',(32.000001296401,19.0000002831221,26.51));
#1204=CARTESIAN_POINT('',(37.3476628126291,19.0000002831221,22.51));
#1205=CARTESIAN_POINT('Origin',(37.75,19.375,22.51));
#1206=CARTESIAN_POINT('',(38.1523371873708,19.0000002831221,22.51));
#1207=CARTESIAN_POINT('Origin',(37.75,19.375,22.51));
#1208=CARTESIAN_POINT('',(38.1523371873708,19.0000002831221,26.51));
#1209=CARTESIAN_POINT('Origin',(37.75,19.375,26.51));
#1210=CARTESIAN_POINT('',(38.1523371873708,19.0000002831221,22.51));
#1211=CARTESIAN_POINT('Origin',(39.9999992549419,19.0000002831221,22.51));
#1212=CARTESIAN_POINT('',(39.9999992549419,19.0000002831221,22.51));
#1213=CARTESIAN_POINT('',(32.000001296401,19.0000002831221,22.51));
#1214=CARTESIAN_POINT('',(39.9999992549419,19.0000002831221,26.51));
#1215=CARTESIAN_POINT('',(32.000001296401,19.0000002831221,26.51));
#1216=CARTESIAN_POINT('',(39.9999992549419,19.0000002831221,22.51));
#1217=CARTESIAN_POINT('Origin',(39.9999992549419,20.5000003054738,22.51));
#1218=CARTESIAN_POINT('',(41.4999992772937,20.5000003054738,22.51));
#1219=CARTESIAN_POINT('Origin',(39.9999992549419,20.5000003054738,22.51));
#1220=CARTESIAN_POINT('',(41.4999992772937,20.5000003054738,26.51));
#1221=CARTESIAN_POINT('Origin',(39.9999992549419,20.5000003054738,26.51));
#1222=CARTESIAN_POINT('',(41.4999992772937,20.5000003054738,22.51));
#1223=CARTESIAN_POINT('Origin',(41.4999992772937,22.3851016826396,22.51));
#1224=CARTESIAN_POINT('',(41.4999992772937,22.3851016826396,22.51));
#1225=CARTESIAN_POINT('',(41.4999992772937,20.5000003054738,22.51));
#1226=CARTESIAN_POINT('',(41.4999992772937,22.3851016826396,26.51));
#1227=CARTESIAN_POINT('',(41.4999992772937,20.5000003054738,26.51));
#1228=CARTESIAN_POINT('',(41.4999992772937,22.3851016826396,22.51));
#1229=CARTESIAN_POINT('Origin',(41.2499999999999,22.875,22.51));
#1230=CARTESIAN_POINT('',(41.4999992772937,23.3648983173605,22.51));
#1231=CARTESIAN_POINT('Origin',(41.2499999999999,22.875,22.51));
#1232=CARTESIAN_POINT('',(41.4999992772937,23.3648983173605,26.51));
#1233=CARTESIAN_POINT('Origin',(41.2499999999999,22.875,26.51));
#1234=CARTESIAN_POINT('',(41.4999992772937,23.3648983173605,22.51));
#1235=CARTESIAN_POINT('Origin',(41.4999992772937,26.8851016826396,22.51));
#1236=CARTESIAN_POINT('',(41.4999992772937,26.8851016826396,22.51));
#1237=CARTESIAN_POINT('',(41.4999992772937,20.5000003054738,22.51));
#1238=CARTESIAN_POINT('',(41.4999992772937,26.8851016826396,26.51));
#1239=CARTESIAN_POINT('',(41.4999992772937,20.5000003054738,26.51));
#1240=CARTESIAN_POINT('',(41.4999992772937,26.8851016826396,22.51));
#1241=CARTESIAN_POINT('Origin',(41.2499999999999,27.375,22.51));
#1242=CARTESIAN_POINT('',(41.4999992772937,27.8648983173605,22.51));
#1243=CARTESIAN_POINT('Origin',(41.2499999999999,27.375,22.51));
#1244=CARTESIAN_POINT('',(41.4999992772937,27.8648983173605,26.51));
#1245=CARTESIAN_POINT('Origin',(41.2499999999999,27.375,26.51));
#1246=CARTESIAN_POINT('',(41.4999992772937,27.8648983173605,22.51));
#1247=CARTESIAN_POINT('Origin',(41.4999992772937,28.5000004246831,22.51));
#1248=CARTESIAN_POINT('',(41.4999992772937,20.5000003054738,22.51));
#1249=CARTESIAN_POINT('',(41.4999992772937,20.5000003054738,26.51));
#1250=CARTESIAN_POINT('Origin',(45.5000004172325,15.0000002235174,26.51));
#1251=CARTESIAN_POINT('Origin',(45.5000004172325,15.0000002235174,22.51));
#1252=UNCERTAINTY_MEASURE_WITH_UNIT(LENGTH_MEASURE(0.01),#1256,
'DISTANCE_ACCURACY_VALUE',
'Maximum model space distance between geometric entities at asserted c
onnectivities');
#1253=UNCERTAINTY_MEASURE_WITH_UNIT(LENGTH_MEASURE(0.01),#1256,
'DISTANCE_ACCURACY_VALUE',
'Maximum model space distance between geometric entities at asserted c
onnectivities');
#1254=(
GEOMETRIC_REPRESENTATION_CONTEXT(3)
GLOBAL_UNCERTAINTY_ASSIGNED_CONTEXT((#1252))
GLOBAL_UNIT_ASSIGNED_CONTEXT((#1256,#1257,#1258))
REPRESENTATION_CONTEXT('','3D')
);
#1255=(
GEOMETRIC_REPRESENTATION_CONTEXT(3)
GLOBAL_UNCERTAINTY_ASSIGNED_CONTEXT((#1253))
GLOBAL_UNIT_ASSIGNED_CONTEXT((#1256,#1257,#1258))
REPRESENTATION_CONTEXT('','3D')
);
#1256=(
LENGTH_UNIT()
NAMED_UNIT(*)
SI_UNIT(.MILLI.,.METRE.)
);
#1257=(
NAMED_UNIT(*)
PLANE_ANGLE_UNIT()
SI_UNIT($,.RADIAN.)
);
#1258=(
NAMED_UNIT(*)
SI_UNIT($,.STERADIAN.)
SOLID_ANGLE_UNIT()
);
#1259=SHAPE_DEFINITION_REPRESENTATION(#1260,#1261);
#1260=PRODUCT_DEFINITION_SHAPE('',$,#1263);
#1261=SHAPE_REPRESENTATION('',(#752),#1254);
#1262=PRODUCT_DEFINITION_CONTEXT('part definition',#1267,'design');
#1263=PRODUCT_DEFINITION('2026-06-17-01-13-31-755','ArxControllerV2',#1264,
#1262);
#1264=PRODUCT_DEFINITION_FORMATION('',$,#1269);
#1265=PRODUCT_RELATED_PRODUCT_CATEGORY('ArxControllerV2',
'ArxControllerV2',(#1269));
#1266=APPLICATION_PROTOCOL_DEFINITION('international standard',
'automotive_design',2009,#1267);
#1267=APPLICATION_CONTEXT(
'Core Data for Automotive Mechanical Design Process');
#1268=PRODUCT_CONTEXT('part definition',#1267,'mechanical');
#1269=PRODUCT('2026-06-17-01-13-31-755','ArxControllerV2',$,(#1268));
#1270=PRESENTATION_STYLE_ASSIGNMENT((#1274));
#1271=PRESENTATION_STYLE_ASSIGNMENT((#1275));
#1272=PRESENTATION_STYLE_ASSIGNMENT((#1276));
#1273=PRESENTATION_STYLE_ASSIGNMENT((#1277));
#1274=SURFACE_STYLE_USAGE(.BOTH.,#1278);
#1275=SURFACE_STYLE_USAGE(.BOTH.,#1279);
#1276=SURFACE_STYLE_USAGE(.BOTH.,#1280);
#1277=SURFACE_STYLE_USAGE(.BOTH.,#1281);
#1278=SURFACE_SIDE_STYLE('',(#1282));
#1279=SURFACE_SIDE_STYLE('',(#1283));
#1280=SURFACE_SIDE_STYLE('',(#1284));
#1281=SURFACE_SIDE_STYLE('',(#1285));
#1282=SURFACE_STYLE_FILL_AREA(#1286);
#1283=SURFACE_STYLE_FILL_AREA(#1287);
#1284=SURFACE_STYLE_FILL_AREA(#1288);
#1285=SURFACE_STYLE_FILL_AREA(#1289);
#1286=FILL_AREA_STYLE('Steel - Satin',(#1290));
#1287=FILL_AREA_STYLE('Paint - Metal Flake (Silver)',(#1291));
#1288=FILL_AREA_STYLE('Paint - Metal Flake (Blue)',(#1292));
#1289=FILL_AREA_STYLE('Paint - Metal Flake (Red)',(#1293));
#1290=FILL_AREA_STYLE_COLOUR('Steel - Satin',#1294);
#1291=FILL_AREA_STYLE_COLOUR('Paint - Metal Flake (Silver)',#1295);
#1292=FILL_AREA_STYLE_COLOUR('Paint - Metal Flake (Blue)',#1296);
#1293=FILL_AREA_STYLE_COLOUR('Paint - Metal Flake (Red)',#1297);
#1294=COLOUR_RGB('Steel - Satin',0.627450980392157,0.627450980392157,0.627450980392157);
#1295=COLOUR_RGB('Paint - Metal Flake (Silver)',0.984313725490196,0.980392156862745,
0.96078431372549);
#1296=COLOUR_RGB('Paint - Metal Flake (Blue)',0.188235294117647,0.231372549019608,
0.588235294117647);
#1297=COLOUR_RGB('Paint - Metal Flake (Red)',0.768627450980392,0.207843137254902,
0.152941176470588);
ENDSEC;
END-ISO-10303-21;
